<svg id="ae0d4315-1958-437c-b758-db4919af5b26" data-name="logo" xmlns="http://www.w3.org/2000/svg" viewBox="0 0 500 500"><ellipse cx="250" cy="250" rx="151.36" ry="152.21" transform="translate(-103.55 250) rotate(-45)" style="fill:#428bca"/><ellipse cx="420.29" cy="415.04" rx="74.43" ry="73.66" transform="translate(-170.38 418.75) rotate(-45)" style="fill:#428bca"/><ellipse cx="428.32" cy="97.16" rx="46.01" ry="44.81" transform="translate(56.75 331.33) rotate(-45)" style="fill:#428bca"/><path d="M84.49,18.66A61.36,61.36,0,1,0,145.85,80,61.36,61.36,0,0,0,84.49,18.66Zm0,93.65A32.3,32.3,0,1,1,116.75,80,32.29,32.29,0,0,1,84.46,112.31Z" style="fill:#428bca"/><path d="M249.62,0A248.28,248.28,0,0,0,98.67,50.55a32.3,32.3,0,0,1,18.45,29.19c0,.6,0,1.19-.05,1.79A212.82,212.82,0,0,1,249.68,35.71C368,35.89,464.11,132,464.29,250.32a213.53,213.53,0,0,1-214,214C132,464.11,35.89,368,35.71,249.68A212.83,212.83,0,0,1,85.66,112l-.83,0A32.3,32.3,0,0,1,55.24,92.68,248.29,248.29,0,0,0,0,249.62C.21,387.7,112.3,499.79,250.38,500S500.21,388.45,500,250.38,387.7.21,249.62,0Z" style="fill:#428bca"/></svg>